<?xml version="1.0" encoding="utf-8"?>
<!-- Generator: Adobe Illustrator 21.1.0, SVG Export Plug-In . SVG Version: 6.00 Build 0)  -->
<svg version="1.1" id="Capa_1" xmlns="http://www.w3.org/2000/svg" xmlns:xlink="http://www.w3.org/1999/xlink" x="0px" y="0px"
	 viewBox="0 0 117.6 117.6" style="enable-background:new 0 0 117.6 117.6;" xml:space="preserve">
<style type="text/css">
	.st0{fill:#FFFFFF;}
	.st1{fill:#07ADAD;}
	.st2{fill:none;}
	.st3{fill:#00C9CE;}
	.st4{fill:none;stroke:#00C9CE;stroke-width:12;stroke-miterlimit:10;}
	.st5{fill:none;stroke:#00C9CE;stroke-width:12;stroke-linecap:round;stroke-linejoin:round;stroke-miterlimit:10;}
</style>
<rect x="0" class="st0" width="117.6" height="117.6"/>
<path class="st4" d="M30.9,56.3c-4.4,0-7.1-3.8-4.9-6.9l27.9-39.1c2.2-3.1,7.6-3.1,9.8,0l27.9,39.1c2.2,3.1-0.5,6.9-4.9,6.9
	c0,0-2.3,0-6.9,0c-4.6,0-5.1,5.5-5.1,5.5v40.6c0,3.1-3.1,5.6-6.9,5.6h-18c-3.8,0-6.9-2.5-6.9-5.6V61.8c0,0,0-5.5-3.6-5.5
	C35.6,56.4,30.9,56.3,30.9,56.3z"/>
</svg>
